<?xml version="1.0" encoding="UTF-8" standalone="no"?>
<!-- Created with Inkscape (http://www.inkscape.org/) -->

<svg
   width="320"
   height="320"
   viewBox="0 0 320 320.00001"
   id="svg2"
   version="1.1"
   inkscape:version="1.1.2 (b8e25be833, 2022-02-05)"
   sodipodi:docname="sine-curve-3-rows.svg"
   xmlns:inkscape="http://www.inkscape.org/namespaces/inkscape"
   xmlns:sodipodi="http://sodipodi.sourceforge.net/DTD/sodipodi-0.dtd"
   xmlns="http://www.w3.org/2000/svg"
   xmlns:svg="http://www.w3.org/2000/svg"
   xmlns:rdf="http://www.w3.org/1999/02/22-rdf-syntax-ns#"
   xmlns:cc="http://creativecommons.org/ns#"
   xmlns:dc="http://purl.org/dc/elements/1.1/">
  <defs
     id="defs4" />
  <sodipodi:namedview
     id="base"
     pagecolor="#ffffff"
     bordercolor="#666666"
     borderopacity="1.0"
     inkscape:pageopacity="0.0"
     inkscape:pageshadow="2"
     inkscape:zoom="1"
     inkscape:cx="198.5"
     inkscape:cy="203"
     inkscape:document-units="px"
     inkscape:current-layer="layer1"
     showgrid="false"
     inkscape:snap-bbox="true"
     inkscape:snap-global="false"
     units="px"
     showborder="true"
     inkscape:showpageshadow="true"
     borderlayer="false"
     inkscape:window-width="1366"
     inkscape:window-height="705"
     inkscape:window-x="-8"
     inkscape:window-y="-8"
     inkscape:window-maximized="1"
     inkscape:pagecheckerboard="0" />
  <metadata
     id="metadata7">
    <rdf:RDF>
      <cc:Work
         rdf:about="">
        <dc:format>image/svg+xml</dc:format>
        <dc:type
           rdf:resource="http://purl.org/dc/dcmitype/StillImage" />
      </cc:Work>
    </rdf:RDF>
  </metadata>
  <g
     inkscape:label="Layer 1"
     inkscape:groupmode="layer"
     id="layer1"
     transform="translate(0,-732.36216)">
    <g
       id="g4527"
       transform="matrix(0.974359,0,0,1,0.0128205,0)"
       style="stroke-width:1.01307">
      <path
         style="fill:#ffffff;fill-opacity:1;stroke:#000000;stroke-width:1.01307;stroke-miterlimit:4;stroke-dasharray:none;stroke-opacity:1"
         d="m 0.5,785.486 c 5.74566,-11.491 11.4913,-22.945 17.237,-32.015 5.7456,-9.071 11.4913,-15.689 17.237,-18.514 5.7456,-2.824 11.4913,-1.817 17.2369,2.795 5.7457,4.613 11.4914,12.821 17.237,22.926 5.7457,10.104 11.4914,22.052 17.237,33.387 5.7457,11.335 11.4913,21.984 17.2371,29.769 5.746,7.786 11.491,12.645 17.237,13.597 5.746,0.953 11.491,-2.027 17.237,-8.309 5.746,-6.282 11.491,-15.844 17.237,-26.712 5.746,-10.867 11.491,-22.979 17.237,-33.849 5.745,-10.87 11.491,-20.423 17.237,-26.711 5.745,-6.289 11.491,-9.255 17.237,-8.31 5.745,0.945 11.491,5.817 17.237,13.597 5.745,7.78 11.491,18.436 17.237,29.77 5.745,11.334 11.491,23.279 17.237,33.387 5.745,10.108 11.491,18.306 17.237,22.925 5.745,4.62 11.491,5.613 17.237,2.796 5.745,-2.818 11.491,-9.448 17.237,-18.514 5.745,-9.066 11.491,-20.524 17.237,-32.015"
         title="t sin(2*t + (0/4)*2*pi)"
         id="path2659" />
      <path
         style="fill:#ffffff;fill-opacity:1;stroke:#000000;stroke-width:1.01307;stroke-miterlimit:4;stroke-dasharray:none;stroke-opacity:1"
         d="m 0.5,944.984 c 2.79917,-0.001 5.59834,-0.91 8.3975,-2.682 2.7992,-1.772 5.5983,-4.409 8.3975,-7.771 2.7992,-3.363 5.5983,-7.454 8.3975,-12.061 2.7992,-4.607 5.5984,-9.731 8.3975,-15.108 2.7992,-5.377 5.5984,-11.006 8.3975,-16.6 2.7992,-5.594 5.5984,-11.15 8.3975,-16.385 2.7992,-5.235 5.5984,-10.145 8.3975,-14.482 2.7992,-4.337 5.5984,-8.096 8.3975,-11.089 2.7992,-2.993 5.5984,-5.214 8.3975,-6.554 2.7992,-1.341 5.5984,-1.796 8.3975,-1.346 2.7992,0.45 5.5984,1.808 8.3976,4.002 2.7991,2.193 5.5983,5.226 8.3974,8.937 2.799,3.712 5.598,8.106 8.398,12.954 2.799,4.848 5.598,10.151 8.397,15.636 2.799,5.485 5.598,11.151 8.398,16.708 2.799,5.558 5.598,11.004 8.397,16.063 2.799,5.058 5.598,9.724 8.398,13.762 2.799,4.038 5.598,7.443 8.397,10.046 2.799,2.602 5.598,4.396 8.398,5.295 2.799,0.899 5.598,0.897 8.397,0 2.799,-0.897 5.598,-2.694 8.398,-5.295 2.799,-2.601 5.598,-6.009 8.397,-10.046 2.799,-4.037 5.598,-8.705 8.398,-13.762 2.799,-5.058 5.598,-10.505 8.397,-16.063 2.799,-5.557 5.598,-11.223 8.398,-16.708 2.799,-5.486 5.598,-10.787 8.397,-15.636 2.799,-4.849 5.598,-9.24 8.398,-12.954 2.799,-3.713 5.598,-6.742 8.397,-8.937 2.799,-2.195 5.598,-3.551 8.398,-4.002 2.799,-0.451 5.598,0.007 8.397,1.346 2.799,1.338 5.598,3.563 8.398,6.554 2.799,2.992 5.598,6.753 8.397,11.089 2.799,4.336 5.598,9.248 8.398,14.482 2.799,5.235 5.598,10.791 8.397,16.385 2.799,5.594 5.598,11.223 8.398,16.6 2.799,5.378 5.598,10.5 8.397,15.108 2.799,4.608 5.599,8.697 8.398,12.061 2.799,3.363 5.598,5.997 8.397,7.771 2.799,1.773 5.599,2.681 8.398,2.682"
         title="t sin(2 * t - 0.5 * pi)"
         id="path4439" />
      <path
         style="fill:#ffffff;fill-opacity:1;stroke:#000000;stroke-width:1.01307;stroke-miterlimit:4;stroke-dasharray:none;stroke-opacity:1"
         d="m 0.5,1000.24 c 2.79917,5.59 5.59834,11.19 8.3975,16.5 2.7992,5.31 5.5983,10.33 8.3975,14.81 2.7992,4.47 5.5983,8.4 8.3975,11.58 2.7992,3.18 5.5984,5.61 8.3975,7.17 2.7992,1.56 5.5984,2.24 8.3975,2.02 2.7992,-0.23 5.5984,-1.36 8.3975,-3.35 2.7992,-1.98 5.5984,-4.82 8.3975,-8.36 2.7992,-3.54 5.5984,-7.79 8.3975,-12.52 2.7992,-4.73 5.5984,-9.95 8.3975,-15.38 2.7992,-5.44 5.5984,-11.09 8.3975,-16.669 2.7992,-5.58 5.5984,-11.086 8.3976,-16.236 2.7991,-5.151 5.5983,-9.943 8.3974,-14.134 2.799,-4.191 5.598,-7.776 8.398,-10.576 2.799,-2.8 5.598,-4.809 8.397,-5.93 2.799,-1.121 5.598,-1.347 8.398,-0.673 2.799,0.674 5.598,2.253 8.397,4.652 2.799,2.399 5.598,5.622 8.398,9.5 2.799,3.877 5.598,8.412 8.397,13.368 2.799,4.957 5.598,10.336 8.398,15.862 2.799,5.526 5.598,11.196 8.397,16.726 2.799,5.52 5.598,10.9 8.398,15.86 2.799,4.96 5.598,9.49 8.397,13.37 2.799,3.88 5.598,7.1 8.398,9.5 2.799,2.4 5.598,3.97 8.397,4.65 2.799,0.67 5.598,0.44 8.398,-0.67 2.799,-1.12 5.598,-3.14 8.397,-5.93 2.799,-2.8 5.598,-6.39 8.398,-10.58 2.799,-4.19 5.598,-8.98 8.397,-14.13 2.799,-5.15 5.598,-10.66 8.398,-16.24 2.799,-5.581 5.598,-11.233 8.397,-16.669 2.799,-5.436 5.598,-10.652 8.398,-15.384 2.799,-4.732 5.598,-8.976 8.397,-12.517 2.799,-3.541 5.598,-6.375 8.398,-8.361 2.799,-1.986 5.598,-3.119 8.397,-3.345 2.799,-0.226 5.598,0.459 8.398,2.016 2.799,1.556 5.598,3.989 8.397,7.168 2.799,3.18 5.599,7.109 8.398,11.584 2.799,4.475 5.598,9.498 8.397,14.807 2.799,5.31 5.599,10.908 8.398,16.511"
         title="t sin(2 * t - 1.0 * pi)"
         id="path4475" />
    </g>
  </g>
</svg>
